<svg height="4558" width="720" xmlns="http://www.w3.org/2000/svg">
<rect height="4558" fill="#555" width="720"></rect>
<text fill="#7f7" font-family="Courier New" font-size="12" xml:space="preserve">
<tspan x="10" y="26">39 megabytes installed</tspan>
<tspan x="10" y="42"></tspan>
<tspan x="10" y="58">node_modules</tspan>
<tspan x="10" y="74">└─┬ castnow@0.4.18 </tspan>
<tspan x="10" y="90">  ├── array-loop@1.0.0 </tspan>
<tspan x="10" y="106">  ├── array-shuffle@1.0.1 </tspan>
<tspan x="10" y="122">  ├─┬ castv2-client@1.2.0 </tspan>
<tspan x="10" y="138">  │ └─┬ castv2@0.1.9 </tspan>
<tspan x="10" y="154">  │   └─┬ protobufjs@3.8.2 </tspan>
<tspan x="10" y="170">  │     ├─┬ ascli@0.3.0 </tspan>
<tspan x="10" y="186">  │     │ ├── colour@0.7.1 </tspan>
<tspan x="10" y="202">  │     │ └── optjs@3.2.2 </tspan>
<tspan x="10" y="218">  │     └─┬ bytebuffer@3.5.5 </tspan>
<tspan x="10" y="234">  │       ├── bufferview@1.0.1 </tspan>
<tspan x="10" y="250">  │       └── long@2.4.0 </tspan>
<tspan x="10" y="266">  ├─┬ chalk@1.0.0 </tspan>
<tspan x="10" y="282">  │ ├── ansi-styles@2.2.1 </tspan>
<tspan x="10" y="298">  │ ├── escape-string-regexp@1.0.5 </tspan>
<tspan x="10" y="314">  │ ├─┬ has-ansi@1.0.3 </tspan>
<tspan x="10" y="330">  │ │ ├── ansi-regex@1.1.1 </tspan>
<tspan x="10" y="346">  │ │ └── get-stdin@4.0.1 </tspan>
<tspan x="10" y="362">  │ ├── strip-ansi@2.0.1 </tspan>
<tspan x="10" y="378">  │ └── supports-color@1.3.1 </tspan>
<tspan x="10" y="394">  ├─┬ chromecast-player@0.2.3 </tspan>
<tspan x="10" y="410">  │ ├─┬ chromecast-scanner@0.5.0 </tspan>
<tspan x="10" y="426">  │ │ ├── array-find@0.1.1 </tspan>
<tspan x="10" y="442">  │ │ └─┬ multicast-dns@4.0.1 </tspan>
<tspan x="10" y="458">  │ │   └── thunky@0.1.0 </tspan>
<tspan x="10" y="474">  │ ├── mutate.js@0.2.0 </tspan>
<tspan x="10" y="490">  │ ├── promiscuous@0.6.0 </tspan>
<tspan x="10" y="506">  │ ├── time-line@1.0.1 </tspan>
<tspan x="10" y="522">  │ └─┬ ware@1.3.0 </tspan>
<tspan x="10" y="538">  │   └─┬ wrap-fn@0.1.5 </tspan>
<tspan x="10" y="554">  │     └── co@3.1.0 </tspan>
<tspan x="10" y="570">  ├── debounced-seeker@1.0.0 </tspan>
<tspan x="10" y="586">  ├─┬ debug@2.6.4 </tspan>
<tspan x="10" y="602">  │ └── ms@0.7.3 </tspan>
<tspan x="10" y="618">  ├─┬ diveSync@0.3.0 </tspan>
<tspan x="10" y="634">  │ └── append@0.1.1 </tspan>
<tspan x="10" y="650">  ├─┬ got@1.2.2 </tspan>
<tspan x="10" y="666">  │ └── object-assign@1.0.0 </tspan>
<tspan x="10" y="682">  ├─┬ internal-ip@1.2.0 </tspan>
<tspan x="10" y="698">  │ └─┬ meow@3.7.0 </tspan>
<tspan x="10" y="714">  │   ├─┬ camelcase-keys@2.1.0 </tspan>
<tspan x="10" y="730">  │   │ └── camelcase@2.1.1 </tspan>
<tspan x="10" y="746">  │   ├── decamelize@1.2.0 </tspan>
<tspan x="10" y="762">  │   ├─┬ loud-rejection@1.6.0 </tspan>
<tspan x="10" y="778">  │   │ ├─┬ currently-unhandled@0.4.1 </tspan>
<tspan x="10" y="794">  │   │ │ └── array-find-index@1.0.2 </tspan>
<tspan x="10" y="810">  │   │ └── signal-exit@3.0.2 </tspan>
<tspan x="10" y="826">  │   ├── map-obj@1.0.1 </tspan>
<tspan x="10" y="842">  │   ├─┬ normalize-package-data@2.3.8 </tspan>
<tspan x="10" y="858">  │   │ ├── hosted-git-info@2.4.2 </tspan>
<tspan x="10" y="874">  │   │ ├─┬ is-builtin-module@1.0.0 </tspan>
<tspan x="10" y="890">  │   │ │ └── builtin-modules@1.1.1 </tspan>
<tspan x="10" y="906">  │   │ ├── semver@5.3.0 </tspan>
<tspan x="10" y="922">  │   │ └─┬ validate-npm-package-license@3.0.1 </tspan>
<tspan x="10" y="938">  │   │   ├─┬ spdx-correct@1.0.2 </tspan>
<tspan x="10" y="954">  │   │   │ └── spdx-license-ids@1.2.2 </tspan>
<tspan x="10" y="970">  │   │   └── spdx-expression-parse@1.0.4 </tspan>
<tspan x="10" y="986">  │   ├── object-assign@4.1.1 </tspan>
<tspan x="10" y="1002">  │   ├─┬ read-pkg-up@1.0.1 </tspan>
<tspan x="10" y="1018">  │   │ ├─┬ find-up@1.1.2 </tspan>
<tspan x="10" y="1034">  │   │ │ ├── path-exists@2.1.0 </tspan>
<tspan x="10" y="1050">  │   │ │ └─┬ pinkie-promise@2.0.1 </tspan>
<tspan x="10" y="1066">  │   │ │   └── pinkie@2.0.4 </tspan>
<tspan x="10" y="1082">  │   │ └─┬ read-pkg@1.1.0 </tspan>
<tspan x="10" y="1098">  │   │   ├─┬ load-json-file@1.1.0 </tspan>
<tspan x="10" y="1114">  │   │   │ ├── graceful-fs@4.1.11 </tspan>
<tspan x="10" y="1130">  │   │   │ ├─┬ parse-json@2.2.0 </tspan>
<tspan x="10" y="1146">  │   │   │ │ └─┬ error-ex@1.3.1 </tspan>
<tspan x="10" y="1162">  │   │   │ │   └── is-arrayish@0.2.1 </tspan>
<tspan x="10" y="1178">  │   │   │ ├── pify@2.3.0 </tspan>
<tspan x="10" y="1194">  │   │   │ └─┬ strip-bom@2.0.0 </tspan>
<tspan x="10" y="1210">  │   │   │   └── is-utf8@0.2.1 </tspan>
<tspan x="10" y="1226">  │   │   └── path-type@1.1.0 </tspan>
<tspan x="10" y="1242">  │   ├─┬ redent@1.0.0 </tspan>
<tspan x="10" y="1258">  │   │ ├─┬ indent-string@2.1.0 </tspan>
<tspan x="10" y="1274">  │   │ │ └─┬ repeating@2.0.1 </tspan>
<tspan x="10" y="1290">  │   │ │   └─┬ is-finite@1.0.2 </tspan>
<tspan x="10" y="1306">  │   │ │     └── number-is-nan@1.0.1 </tspan>
<tspan x="10" y="1322">  │   │ └── strip-indent@1.0.1 </tspan>
<tspan x="10" y="1338">  │   └── trim-newlines@1.0.0 </tspan>
<tspan x="10" y="1354">  ├── keypress@0.2.1 </tspan>
<tspan x="10" y="1370">  ├── mime@1.3.4 </tspan>
<tspan x="10" y="1386">  ├── minimist@1.2.0 </tspan>
<tspan x="10" y="1402">  ├─┬ peerflix@0.34.0 </tspan>
<tspan x="10" y="1418">  │ ├─┬ airplay-js@0.2.16 </tspan>
<tspan x="10" y="1434">  │ │ ├─┬ mdns-js@0.5.3 </tspan>
<tspan x="10" y="1450">  │ │ │ ├─┬ dns-js@0.2.1 </tspan>
<tspan x="10" y="1466">  │ │ │ │ └── qap@3.1.3 </tspan>
<tspan x="10" y="1482">  │ │ │ └── semver@5.1.1 </tspan>
<tspan x="10" y="1498">  │ │ └─┬ plist@2.0.1 </tspan>
<tspan x="10" y="1514">  │ │   ├── base64-js@1.1.2 </tspan>
<tspan x="10" y="1530">  │ │   ├── xmlbuilder@8.2.2 </tspan>
<tspan x="10" y="1546">  │ │   └── xmldom@0.1.27 </tspan>
<tspan x="10" y="1562">  │ ├── clivas@0.1.4 </tspan>
<tspan x="10" y="1578">  │ ├─┬ inquirer@0.8.5 </tspan>
<tspan x="10" y="1594">  │ │ ├── cli-width@1.1.1 </tspan>
<tspan x="10" y="1610">  │ │ ├─┬ figures@1.7.0 </tspan>
<tspan x="10" y="1626">  │ │ │ └── object-assign@4.1.1 </tspan>
<tspan x="10" y="1642">  │ │ ├── lodash@3.10.1 </tspan>
<tspan x="10" y="1658">  │ │ ├─┬ readline2@0.1.1 </tspan>
<tspan x="10" y="1674">  │ │ │ └── mute-stream@0.0.4 </tspan>
<tspan x="10" y="1690">  │ │ ├── rx@2.5.3 </tspan>
<tspan x="10" y="1706">  │ │ └── through@2.3.8 </tspan>
<tspan x="10" y="1722">  │ ├── network-address@0.0.5 </tspan>
<tspan x="10" y="1738">  │ ├── numeral@1.5.6 </tspan>
<tspan x="10" y="1754">  │ ├── open@0.0.5 </tspan>
<tspan x="10" y="1770">  │ ├─┬ optimist@0.6.1 </tspan>
<tspan x="10" y="1786">  │ │ ├── minimist@0.0.10 </tspan>
<tspan x="10" y="1802">  │ │ └── wordwrap@0.0.3 </tspan>
<tspan x="10" y="1818">  │ ├─┬ parse-torrent@5.8.3 </tspan>
<tspan x="10" y="1834">  │ │ ├── blob-to-buffer@1.2.6 </tspan>
<tspan x="10" y="1850">  │ │ ├── get-stdin@5.0.1 </tspan>
<tspan x="10" y="1866">  │ │ ├─┬ magnet-uri@5.1.7 </tspan>
<tspan x="10" y="1882">  │ │ │ ├── safe-buffer@5.0.1 </tspan>
<tspan x="10" y="1898">  │ │ │ ├── thirty-two@1.0.2 </tspan>
<tspan x="10" y="1914">  │ │ │ └── uniq@1.0.1 </tspan>
<tspan x="10" y="1930">  │ │ ├─┬ parse-torrent-file@4.0.2 </tspan>
<tspan x="10" y="1946">  │ │ │ ├── bencode@0.11.0 </tspan>
<tspan x="10" y="1962">  │ │ │ └─┬ simple-sha1@2.1.0 </tspan>
<tspan x="10" y="1978">  │ │ │   └── rusha@0.8.5 </tspan>
<tspan x="10" y="1994">  │ │ └─┬ simple-get@2.6.0 </tspan>
<tspan x="10" y="2010">  │ │   ├─┬ once@1.4.0 </tspan>
<tspan x="10" y="2026">  │ │   │ └── wrappy@1.0.2 </tspan>
<tspan x="10" y="2042">  │ │   ├── simple-concat@1.0.0 </tspan>
<tspan x="10" y="2058">  │ │   └── unzip-response@2.0.1 </tspan>
<tspan x="10" y="2074">  │ ├─┬ pump@0.3.5 </tspan>
<tspan x="10" y="2090">  │ │ ├─┬ end-of-stream@1.0.0 </tspan>
<tspan x="10" y="2106">  │ │ │ └── once@1.3.3 </tspan>
<tspan x="10" y="2122">  │ │ └── once@1.2.0 </tspan>
<tspan x="10" y="2138">  │ ├─┬ rc@0.4.0 </tspan>
<tspan x="10" y="2154">  │ │ ├── deep-extend@0.2.11 </tspan>
<tspan x="10" y="2170">  │ │ ├── ini@1.1.0 </tspan>
<tspan x="10" y="2186">  │ │ ├── minimist@0.0.10 </tspan>
<tspan x="10" y="2202">  │ │ └── strip-json-comments@0.1.3 </tspan>
<tspan x="10" y="2218">  │ ├─┬ torrent-stream@1.0.3 </tspan>
<tspan x="10" y="2234">  │ │ ├── bitfield@0.1.0 </tspan>
<tspan x="10" y="2250">  │ │ ├── bncode@0.5.3 </tspan>
<tspan x="10" y="2266">  │ │ ├─┬ end-of-stream@0.1.5 </tspan>
<tspan x="10" y="2282">  │ │ │ └── once@1.3.3 </tspan>
<tspan x="10" y="2298">  │ │ ├─┬ fs-chunk-store@1.6.5 </tspan>
<tspan x="10" y="2314">  │ │ │ ├─┬ mkdirp@0.5.1 </tspan>
<tspan x="10" y="2330">  │ │ │ │ └── minimist@0.0.8 </tspan>
<tspan x="10" y="2346">  │ │ │ ├─┬ random-access-file@1.7.0 </tspan>
<tspan x="10" y="2362">  │ │ │ │ ├── buffer-alloc-unsafe@1.0.0 </tspan>
<tspan x="10" y="2378">  │ │ │ │ ├─┬ mkdirp@0.5.1 </tspan>
<tspan x="10" y="2394">  │ │ │ │ │ └── minimist@0.0.8 </tspan>
<tspan x="10" y="2410">  │ │ │ │ └── thunky@1.0.2 </tspan>
<tspan x="10" y="2426">  │ │ │ ├── randombytes@2.0.3 </tspan>
<tspan x="10" y="2442">  │ │ │ ├── run-parallel@1.1.6 </tspan>
<tspan x="10" y="2458">  │ │ │ └── thunky@1.0.2 </tspan>
<tspan x="10" y="2474">  │ │ ├── hat@0.0.3 </tspan>
<tspan x="10" y="2490">  │ │ ├── immediate-chunk-store@1.0.8 </tspan>
<tspan x="10" y="2506">  │ │ ├─┬ ip-set@1.0.1 </tspan>
<tspan x="10" y="2522">  │ │ │ └── ip@1.1.5 </tspan>
<tspan x="10" y="2538">  │ │ ├── mkdirp@0.3.5 </tspan>
<tspan x="10" y="2554">  │ │ ├─┬ parse-torrent@4.1.0 </tspan>
<tspan x="10" y="2570">  │ │ │ ├─┬ magnet-uri@4.2.3 </tspan>
<tspan x="10" y="2586">  │ │ │ │ └── thirty-two@0.0.2 </tspan>
<tspan x="10" y="2602">  │ │ │ └─┬ parse-torrent-file@2.1.4 </tspan>
<tspan x="10" y="2618">  │ │ │   └── bencode@0.7.0 </tspan>
<tspan x="10" y="2634">  │ │ ├─┬ peer-wire-swarm@0.12.1 </tspan>
<tspan x="10" y="2650">  │ │ │ ├── fifo@0.1.4 </tspan>
<tspan x="10" y="2666">  │ │ │ ├─┬ peer-wire-protocol@0.7.0 </tspan>
<tspan x="10" y="2682">  │ │ │ │ ├── bncode@0.2.3 </tspan>
<tspan x="10" y="2698">  │ │ │ │ └─┬ readable-stream@1.1.14 </tspan>
<tspan x="10" y="2714">  │ │ │ │   ├── isarray@0.0.1 </tspan>
<tspan x="10" y="2730">  │ │ │ │   └── string_decoder@0.10.31 </tspan>
<tspan x="10" y="2746">  │ │ │ ├── speedometer@0.1.4 </tspan>
<tspan x="10" y="2762">  │ │ │ └─┬ utp@0.0.7 </tspan>
<tspan x="10" y="2778">  │ │ │   └── cyclist@0.1.1 </tspan>
<tspan x="10" y="2794">  │ │ ├─┬ rimraf@2.6.1 </tspan>
<tspan x="10" y="2810">  │ │ │ └─┬ glob@7.1.1 </tspan>
<tspan x="10" y="2826">  │ │ │   ├── fs.realpath@1.0.0 </tspan>
<tspan x="10" y="2842">  │ │ │   ├── inflight@1.0.6 </tspan>
<tspan x="10" y="2858">  │ │ │   ├─┬ minimatch@3.0.3 </tspan>
<tspan x="10" y="2874">  │ │ │   │ └─┬ brace-expansion@1.1.7 </tspan>
<tspan x="10" y="2890">  │ │ │   │   ├── balanced-match@0.4.2 </tspan>
<tspan x="10" y="2906">  │ │ │   │   └── concat-map@0.0.1 </tspan>
<tspan x="10" y="2922">  │ │ │   └── path-is-absolute@1.0.1 </tspan>
<tspan x="10" y="2938">  │ │ ├─┬ torrent-discovery@5.4.0 </tspan>
<tspan x="10" y="2954">  │ │ │ ├─┬ bittorrent-dht@6.4.2 </tspan>
<tspan x="10" y="2970">  │ │ │ │ ├── bencode@0.7.0 </tspan>
<tspan x="10" y="2986">  │ │ │ │ ├── buffer-equals@1.0.4 </tspan>
<tspan x="10" y="3002">  │ │ │ │ ├─┬ k-bucket@0.6.0 </tspan>
<tspan x="10" y="3018">  │ │ │ │ │ └── buffer-equal@0.0.1 </tspan>
<tspan x="10" y="3034">  │ │ │ │ ├─┬ k-rpc@3.7.0 </tspan>
<tspan x="10" y="3050">  │ │ │ │ │ ├── k-bucket@2.0.1 </tspan>
<tspan x="10" y="3066">  │ │ │ │ │ └── k-rpc-socket@1.6.2 </tspan>
<tspan x="10" y="3082">  │ │ │ │ └── lru@2.0.1 </tspan>
<tspan x="10" y="3098">  │ │ │ ├─┬ bittorrent-tracker@7.7.0 </tspan>
<tspan x="10" y="3114">  │ │ │ │ ├── bencode@0.8.0 </tspan>
<tspan x="10" y="3130">  │ │ │ │ ├── bn.js@4.11.6 </tspan>
<tspan x="10" y="3146">  │ │ │ │ ├─┬ compact2string@1.4.0 </tspan>
<tspan x="10" y="3162">  │ │ │ │ │ └── ipaddr.js@1.3.0 </tspan>
<tspan x="10" y="3178">  │ │ │ │ ├── random-iterate@1.0.1 </tspan>
<tspan x="10" y="3194">  │ │ │ │ ├── run-series@1.1.4 </tspan>
<tspan x="10" y="3210">  │ │ │ │ ├─┬ simple-peer@6.4.4 </tspan>
<tspan x="10" y="3226">  │ │ │ │ │ ├── get-browser-rtc@1.0.2 </tspan>
<tspan x="10" y="3242">  │ │ │ │ │ └─┬ readable-stream@2.2.9 </tspan>
<tspan x="10" y="3258">  │ │ │ │ │   ├── isarray@1.0.0 </tspan>
<tspan x="10" y="3274">  │ │ │ │ │   └── string_decoder@1.0.0 </tspan>
<tspan x="10" y="3290">  │ │ │ │ ├─┬ simple-websocket@4.3.1 </tspan>
<tspan x="10" y="3306">  │ │ │ │ │ ├─┬ readable-stream@2.2.9 </tspan>
<tspan x="10" y="3322">  │ │ │ │ │ │ ├── isarray@1.0.0 </tspan>
<tspan x="10" y="3338">  │ │ │ │ │ │ └── string_decoder@1.0.0 </tspan>
<tspan x="10" y="3354">  │ │ │ │ │ └─┬ ws@2.3.1 </tspan>
<tspan x="10" y="3370">  │ │ │ │ │   └── ultron@1.1.0 </tspan>
<tspan x="10" y="3386">  │ │ │ │ ├─┬ string2compact@1.2.2 </tspan>
<tspan x="10" y="3402">  │ │ │ │ │ └── addr-to-ip-port@1.4.2 </tspan>
<tspan x="10" y="3418">  │ │ │ │ └─┬ ws@1.1.4 </tspan>
<tspan x="10" y="3434">  │ │ │ │   ├── options@0.0.6 </tspan>
<tspan x="10" y="3450">  │ │ │ │   └── ultron@1.0.2 </tspan>
<tspan x="10" y="3466">  │ │ │ ├── inherits@2.0.3 </tspan>
<tspan x="10" y="3482">  │ │ │ └── re-emitter@1.1.3 </tspan>
<tspan x="10" y="3498">  │ │ └── torrent-piece@1.1.1 </tspan>
<tspan x="10" y="3514">  │ └── windows-no-runnable@0.0.6 </tspan>
<tspan x="10" y="3530">  ├─┬ playerui@1.2.0 </tspan>
<tspan x="10" y="3546">  │ ├─┬ chalk@0.5.1 </tspan>
<tspan x="10" y="3562">  │ │ ├── ansi-styles@1.1.0 </tspan>
<tspan x="10" y="3578">  │ │ ├─┬ has-ansi@0.1.0 </tspan>
<tspan x="10" y="3594">  │ │ │ └── ansi-regex@0.2.1 </tspan>
<tspan x="10" y="3610">  │ │ ├── strip-ansi@0.3.0 </tspan>
<tspan x="10" y="3626">  │ │ └── supports-color@0.2.0 </tspan>
<tspan x="10" y="3642">  │ ├── pad@0.0.5 </tspan>
<tspan x="10" y="3658">  │ └── single-line-log@0.4.1 </tspan>
<tspan x="10" y="3674">  ├── query-string@1.0.1 </tspan>
<tspan x="10" y="3690">  ├── range-parser@1.2.0 </tspan>
<tspan x="10" y="3706">  ├─┬ read-torrent@1.3.0 </tspan>
<tspan x="10" y="3722">  │ ├─┬ magnet-uri@2.0.1 </tspan>
<tspan x="10" y="3738">  │ │ └── thirty-two@0.0.2 </tspan>
<tspan x="10" y="3754">  │ ├─┬ parse-torrent@4.1.0 </tspan>
<tspan x="10" y="3770">  │ │ ├─┬ magnet-uri@4.2.3 </tspan>
<tspan x="10" y="3786">  │ │ │ └── flatten@0.0.1 </tspan>
<tspan x="10" y="3802">  │ │ └─┬ parse-torrent-file@2.1.4 </tspan>
<tspan x="10" y="3818">  │ │   └── bencode@0.7.0 </tspan>
<tspan x="10" y="3834">  │ └─┬ request@2.16.6 </tspan>
<tspan x="10" y="3850">  │   ├── aws-sign@0.2.0 </tspan>
<tspan x="10" y="3866">  │   ├── cookie-jar@0.2.0 </tspan>
<tspan x="10" y="3882">  │   ├── forever-agent@0.2.0 </tspan>
<tspan x="10" y="3898">  │   ├─┬ form-data@0.0.10 </tspan>
<tspan x="10" y="3914">  │   │ ├── async@0.2.10 </tspan>
<tspan x="10" y="3930">  │   │ ├─┬ combined-stream@0.0.7 </tspan>
<tspan x="10" y="3946">  │   │ │ └── delayed-stream@0.0.5 </tspan>
<tspan x="10" y="3962">  │   │ └── mime@1.2.11 </tspan>
<tspan x="10" y="3978">  │   ├─┬ hawk@0.10.2 </tspan>
<tspan x="10" y="3994">  │   │ ├── boom@0.3.8 </tspan>
<tspan x="10" y="4010">  │   │ ├── cryptiles@0.1.3 </tspan>
<tspan x="10" y="4026">  │   │ ├── hoek@0.7.6 </tspan>
<tspan x="10" y="4042">  │   │ └── sntp@0.1.4 </tspan>
<tspan x="10" y="4058">  │   ├── json-stringify-safe@3.0.0 </tspan>
<tspan x="10" y="4074">  │   ├── mime@1.2.11 </tspan>
<tspan x="10" y="4090">  │   ├── node-uuid@1.4.8 </tspan>
<tspan x="10" y="4106">  │   ├── oauth-sign@0.2.0 </tspan>
<tspan x="10" y="4122">  │   ├── qs@0.5.6 </tspan>
<tspan x="10" y="4138">  │   └── tunnel-agent@0.2.0 </tspan>
<tspan x="10" y="4154">  ├── router@0.6.2 </tspan>
<tspan x="10" y="4170">  ├─┬ srt2vtt@1.3.1 </tspan>
<tspan x="10" y="4186">  │ ├─┬ codepage@1.4.0 </tspan>
<tspan x="10" y="4202">  │ │ ├─┬ commander@2.9.0 </tspan>
<tspan x="10" y="4218">  │ │ │ └── graceful-readlink@1.0.1 </tspan>
<tspan x="10" y="4234">  │ │ ├─┬ concat-stream@1.6.0 </tspan>
<tspan x="10" y="4250">  │ │ │ ├─┬ readable-stream@2.2.9 </tspan>
<tspan x="10" y="4266">  │ │ │ │ ├── buffer-shims@1.0.0 </tspan>
<tspan x="10" y="4282">  │ │ │ │ ├── core-util-is@1.0.2 </tspan>
<tspan x="10" y="4298">  │ │ │ │ ├── isarray@1.0.0 </tspan>
<tspan x="10" y="4314">  │ │ │ │ ├── process-nextick-args@1.0.7 </tspan>
<tspan x="10" y="4330">  │ │ │ │ ├── string_decoder@1.0.0 </tspan>
<tspan x="10" y="4346">  │ │ │ │ └── util-deprecate@1.0.2 </tspan>
<tspan x="10" y="4362">  │ │ │ └── typedarray@0.0.6 </tspan>
<tspan x="10" y="4378">  │ │ ├── exit-on-epipe@1.0.0 </tspan>
<tspan x="10" y="4394">  │ │ └── voc@0.5.0 </tspan>
<tspan x="10" y="4410">  │ └── utfx@1.0.1 </tspan>
<tspan x="10" y="4426">  ├── stream-transcoder@0.0.5 </tspan>
<tspan x="10" y="4442">  ├─┬ xml2js@0.4.17 </tspan>
<tspan x="10" y="4458">  │ ├── sax@1.2.2 </tspan>
<tspan x="10" y="4474">  │ └─┬ xmlbuilder@4.2.1 </tspan>
<tspan x="10" y="4490">  │   └── lodash@4.17.4 </tspan>
<tspan x="10" y="4506">  ├─┬ xspfr@0.3.1 </tspan>
<tspan x="10" y="4522">  │ └── underscore@1.6.0 </tspan>
<tspan x="10" y="4538">  └── xtend@4.0.1</tspan>
</text>
</svg>
